# xmcd
#
# Track frame offsets: 
#        150
#        16919
#        26006
#        43037
#        61304
#        71193
#        83649
#        97039
#        107386
#        120768
#        128527
#        142422
#        152526
#        167153
#        180934
#        191410
#        208824
#        222293
#
# Disc length: 3133 seconds
#
# Revision: 0
# Processed by: cddbd v1.5.2PL0 Copyright (c) Steve Scherf et al.
# Submitted via: ExactAudioCopy v0.99pb4
#
DISCID=f10c3b12
DTITLE=Various Artist - Irish Favourites   CD 3
DYEAR=2005
DGENRE=Irish Music
TTITLE0=01 - Paddy O'Connor and Friends - White Orange and Green (Tabbhair
TTITLE0=Dom Do Lahm)
TTITLE1=02 - Melody Greenwood - Macushla
TTITLE2=03 - The Celtic Ceili Band - Three Young Ladies Drinking Whisk
TTITLE2=ey Before Breakfast
TTITLE3=04 - Paddy O'Connor and Friends - Ramblin' Irishman
TTITLE4=05 - Melody Greenwood - Galway Bay
TTITLE5=06 - Brian Dullaghan - The Wild Rover
TTITLE6=07 - Paddy O'Connor and Friends - Champion At keepin' Them Rolli
TTITLE6=n' 
TTITLE7=08 - Paddy O'Connor and Friends - Night Visiting Sun
TTITLE8=09 - Melody Greenwood - Maggie
TTITLE9=10 - The Celtic Ceili Band - Robert Emmet
TTITLE10=11 - Paddy O'Connor and Friends - Beggaman
TTITLE11=12 - Melody Greenwood - The Spinnig Wheel
TTITLE12=13 - The Celtic Ceili Band - Song of The North
TTITLE13=14 - Brian Dullaghan - When Irish Eyes Are Smilling
TTITLE14=15 - Paddy O'Connor and Friends - Turtle Dove
TTITLE15=16 - The Celtic Ceili Band - Wearing of the Green
TTITLE16=17 - Brian Dullaghan - Molly Malone
TTITLE17=18 - Melody Greenwood - The Rose of Tralee
EXTD=
EXTT0=
EXTT1=
EXTT2=
EXTT3=
EXTT4=
EXTT5=
EXTT6=
EXTT7=
EXTT8=
EXTT9=
EXTT10=
EXTT11=
EXTT12=
EXTT13=
EXTT14=
EXTT15=
EXTT16=
EXTT17=
PLAYORDER=
